<?xml version="1.0" standalone="no"?>
<!DOCTYPE svg PUBLIC "-//W3C//DTD SVG 20010904//EN"
 "http://www.w3.org/TR/2001/REC-SVG-20010904/DTD/svg10.dtd">
<svg version="1.0" xmlns="http://www.w3.org/2000/svg"
 width="304.000000pt" height="304.000000pt" viewBox="0 0 304.000000 304.000000"
 preserveAspectRatio="xMidYMid meet">
<metadata>
Created by Santanu Panda
</metadata>
<g transform="translate(0.000000,304.000000) scale(0.100000,-0.100000)"
fill="#d42d37" stroke="none">
<path d="M1280 2976 c-226 -41 -402 -111 -589 -236 -89 -60 -271 -223 -261
-233 3 -3 30 -1 60 5 30 6 107 8 170 5 295 -13 500 -158 574 -406 9 -30 16
-67 16 -83 l0 -28 -239 0 -239 0 -6 33 c-11 60 -72 97 -159 97 -124 0 -190
-110 -116 -194 40 -47 105 -76 290 -131 357 -107 489 -218 521 -440 23 -166
-35 -329 -160 -447 -82 -77 -138 -110 -257 -150 -76 -26 -110 -32 -216 -36
-150 -5 -254 12 -372 63 -45 19 -77 28 -77 21 0 -6 23 -47 51 -90 182 -284
445 -493 762 -605 170 -60 270 -75 487 -75 164 0 211 3 297 22 494 107 895
443 1073 898 22 57 40 108 40 114 0 7 -38 -24 -84 -67 -147 -139 -307 -204
-506 -205 -170 -1 -300 43 -417 141 l-63 53 0 -336 0 -336 -230 0 -230 0 0
1045 0 1045 215 0 215 0 0 -85 c0 -47 3 -85 6 -85 3 0 38 29 77 65 180 167
439 208 700 111 48 -18 87 -30 87 -25 0 15 -97 124 -179 201 -187 176 -435
305 -701 363 -102 23 -436 29 -540 11z"/>
<path d="M2130 2036 c-90 -26 -177 -91 -226 -168 -84 -132 -84 -324 0 -457
108 -171 341 -228 529 -129 106 57 177 161 200 294 31 182 -78 383 -241 444
-70 27 -198 35 -262 16z"/>
<path d="M45 1598 c-3 -62 -2 -156 4 -208 6 -52 11 -98 11 -102 0 -4 84 -9
186 -10 l186 -3 14 -40 c27 -79 109 -122 212 -112 99 10 158 66 155 144 -3 91
-46 119 -342 228 -229 84 -257 98 -345 165 -36 27 -67 50 -70 50 -2 0 -7 -51
-11 -112z"/>
</g>
</svg>
